<svg width="16" height="17" viewBox="0 0 16 17" fill="none" xmlns="http://www.w3.org/2000/svg">
<g id="Group">
<path id="Vector" d="M3.30001 12.4C3.00001 12 2.70001 11.3 2.10001 10.4C1.80001 9.90005 0.900012 8.90005 0.600012 8.50005C0.400012 8.10005 0.400011 7.90005 0.500011 7.50005C0.600011 6.90005 1.20001 6.40005 1.90001 6.40005C2.40001 6.40005 2.90001 6.80005 3.30001 7.10005C3.50001 7.30005 3.80001 7.70005 4.00001 7.90005C4.20001 8.10005 4.20001 8.20005 4.40001 8.40005C4.60001 8.70005 4.70001 8.90005 4.60001 8.50005C4.50001 8.00005 4.40001 7.20005 4.20001 6.40005C4.10001 5.80005 4.00001 5.70005 3.90001 5.30005C3.80001 4.80005 3.70001 4.50005 3.60001 4.00005C3.50001 3.70005 3.40001 2.90005 3.30001 2.50005C3.20001 2.00005 3.20001 1.10005 3.60001 0.700048C3.90001 0.400048 4.50001 0.300048 4.90001 0.500048C5.40001 0.800048 5.70001 1.50005 5.80001 1.80005C6.00001 2.30005 6.20001 3.00005 6.30001 3.80005C6.50001 4.80005 6.80001 6.30005 6.80001 6.60005C6.80001 6.20005 6.70001 5.50005 6.80001 5.10005C6.90001 4.80005 7.10001 4.40005 7.50001 4.30005C7.80001 4.20005 8.10001 4.20005 8.40001 4.20005C8.70001 4.30005 9.00001 4.50005 9.20001 4.70005C9.60001 5.30005 9.60001 6.60005 9.60001 6.50005C9.70001 6.10005 9.70001 5.30005 9.90001 4.90005C10 4.70005 10.4 4.50005 10.6 4.40005C10.9 4.30005 11.3 4.30005 11.6 4.40005C11.8 4.40005 12.2 4.70005 12.3 4.90005C12.5 5.20005 12.6 6.20005 12.7 6.60005C12.7 6.70005 12.8 6.20005 13 5.90005C13.4 5.30005 14.8 5.10005 14.9 6.50005C14.9 7.20005 14.9 7.10005 14.9 7.60005C14.9 8.10005 14.9 8.40005 14.9 8.80005C14.9 9.20005 14.8 10.1 14.7 10.5C14.6 10.8 14.3 11.5 14 11.9C14 11.9 12.9 13.1 12.8 13.7C12.7 14.3 12.7 14.3 12.7 14.7C12.7 15.1 12.8 15.6 12.8 15.6C12.8 15.6 12 15.7 11.6 15.6C11.2 15.5 10.7 14.8 10.6 14.5C10.4 14.2 10.1 14.2 9.90001 14.5C9.70001 14.9 9.20001 15.6 8.80001 15.6C8.10001 15.7 6.70001 15.6 5.70001 15.6C5.70001 15.6 5.90001 14.6 5.50001 14.2C5.20001 13.9 4.70001 13.4 4.40001 13.1L3.30001 12.4Z" fill="white"/>
<path id="Vector_2" d="M3.30001 12.4C3.00001 12 2.70001 11.3 2.10001 10.4C1.80001 9.90005 0.900012 8.90005 0.600012 8.50005C0.400012 8.10005 0.400011 7.90005 0.500011 7.50005C0.600011 6.90005 1.20001 6.40005 1.90001 6.40005C2.40001 6.40005 2.90001 6.80005 3.30001 7.10005C3.50001 7.30005 3.80001 7.70005 4.00001 7.90005C4.20001 8.10005 4.20001 8.20005 4.40001 8.40005C4.60001 8.70005 4.70001 8.90005 4.60001 8.50005C4.50001 8.00005 4.40001 7.20005 4.20001 6.40005C4.10001 5.80005 4.00001 5.70005 3.90001 5.30005C3.80001 4.80005 3.70001 4.50005 3.60001 4.00005C3.50001 3.70005 3.40001 2.90005 3.30001 2.50005C3.20001 2.00005 3.20001 1.10005 3.60001 0.700048C3.90001 0.400048 4.50001 0.300048 4.90001 0.500048C5.40001 0.800048 5.70001 1.50005 5.80001 1.80005C6.00001 2.30005 6.20001 3.00005 6.30001 3.80005C6.50001 4.80005 6.80001 6.30005 6.80001 6.60005C6.80001 6.20005 6.70001 5.50005 6.80001 5.10005C6.90001 4.80005 7.10001 4.40005 7.50001 4.30005C7.80001 4.20005 8.10001 4.20005 8.40001 4.20005C8.70001 4.30005 9.00001 4.50005 9.20001 4.70005C9.60001 5.30005 9.60001 6.60005 9.60001 6.50005C9.70001 6.10005 9.70001 5.30005 9.90001 4.90005C10 4.70005 10.4 4.50005 10.6 4.40005C10.9 4.30005 11.3 4.30005 11.6 4.40005C11.8 4.40005 12.2 4.70005 12.3 4.90005C12.5 5.20005 12.6 6.20005 12.7 6.60005C12.7 6.70005 12.8 6.20005 13 5.90005C13.4 5.30005 14.8 5.10005 14.9 6.50005C14.9 7.20005 14.9 7.10005 14.9 7.60005C14.9 8.10005 14.9 8.40005 14.9 8.80005C14.9 9.20005 14.8 10.1 14.7 10.5C14.6 10.8 14.3 11.5 14 11.9C14 11.9 12.9 13.1 12.8 13.7C12.7 14.3 12.7 14.3 12.7 14.7C12.7 15.1 12.8 15.6 12.8 15.6C12.8 15.6 12 15.7 11.6 15.6C11.2 15.5 10.7 14.8 10.6 14.5C10.4 14.2 10.1 14.2 9.90001 14.5C9.70001 14.9 9.20001 15.6 8.80001 15.6C8.10001 15.7 6.70001 15.6 5.70001 15.6C5.70001 15.6 5.90001 14.6 5.50001 14.2C5.20001 13.9 4.70001 13.4 4.40001 13.1L3.30001 12.4Z" stroke="black" stroke-width="0.75" stroke-linecap="round" stroke-linejoin="round"/>
<path id="Vector_3" d="M11.6001 12.7001V9.30005" stroke="black" stroke-width="0.75" stroke-linecap="round"/>
<path id="Vector_4" d="M9.6 12.7001L9.5 9.30005" stroke="black" stroke-width="0.75" stroke-linecap="round"/>
<path id="Vector_5" d="M7.6001 9.30005V12.7001" stroke="black" stroke-width="0.75" stroke-linecap="round"/>
</g>
</svg>
